<?xml version="1.0" encoding="UTF-8" standalone="no"?>
<!DOCTYPE svg PUBLIC "-//W3C//DTD SVG 1.1//EN" "http://www.w3.org/Graphics/SVG/1.1/DTD/svg11.dtd">
<!-- Created with Vectornator (http://vectornator.io/) -->
<svg height="100%" stroke-miterlimit="10" style="fill-rule:nonzero;clip-rule:evenodd;stroke-linecap:round;stroke-linejoin:round;" version="1.1" viewBox="0 0 180 180" width="100%" xml:space="preserve" xmlns="http://www.w3.org/2000/svg" xmlns:vectornator="http://vectornator.io" xmlns:xlink="http://www.w3.org/1999/xlink">
<defs/>
<g id="Layer-1" vectornator:layerName="Layer 1">
<g opacity="1" vectornator:layerName="Group 1">
<path d="M71.0245 48.7611C69.9965 47.8473 68.7115 47.1477 67.1694 46.6623C65.6274 46.1768 64.1139 45.9341 62.629 45.9341C60.9728 45.9341 59.4593 46.2339 58.0886 46.8336C56.7179 47.4333 55.5328 48.2614 54.5334 49.318C53.5339 50.3746 52.7486 51.6453 52.1775 53.1302C51.6064 54.6151 51.3208 56.2143 51.3208 57.9276C51.3208 59.641 51.6349 61.2401 52.2632 62.725C52.8914 64.21 53.7481 65.4807 54.8332 66.5373C55.9184 67.5939 57.1891 68.422 58.6455 69.0217C60.1018 69.6213 61.6581 69.9212 63.3144 69.9212C65.2562 69.9212 67.0267 69.5071 68.6258 68.679C70.2249 67.8509 71.5956 66.7229 72.7379 65.2951L67.5978 65.2951L67.5978 53.3016L89.6145 53.3016L89.6145 72.3199C88.3009 74.6615 86.7303 76.7889 84.9027 78.7022C83.0752 80.6154 81.0334 82.2574 78.7775 83.6281C76.5215 84.9988 74.08 86.0553 71.4528 86.7978C68.8257 87.5403 66.1129 87.9115 63.3144 87.9115C59.2023 87.9115 55.3187 87.1405 51.6635 85.5984C48.0083 84.0564 44.8243 81.9433 42.1115 79.259C39.3987 76.5747 37.257 73.405 35.6864 69.7498C34.1158 66.0947 33.3305 62.1539 33.3305 57.9276C33.3305 53.8156 34.073 49.9319 35.5579 46.2768C37.0428 42.6216 39.0846 39.4376 41.6832 36.7248C44.2818 34.0119 47.3658 31.8702 50.9353 30.2997C54.5048 28.7291 58.3456 27.9438 62.4577 27.9438C65.656 27.9438 68.4259 28.2579 70.7675 28.8861C73.1091 29.5144 75.0795 30.2283 76.6786 31.0278C78.5633 31.9416 80.1339 32.9411 81.3904 34.0262L71.0245 48.7611ZM71.8812 37.71C71.1387 37.3673 70.3106 37.0817 69.3968 36.8533C68.5972 36.6248 67.6549 36.4249 66.5698 36.2536C65.4846 36.0823 64.2853 35.9966 62.9717 35.9966C59.9448 35.9966 57.1177 36.5392 54.4906 37.6243C51.8634 38.7094 49.5789 40.2086 47.6371 42.1219C45.6953 44.0351 44.1675 46.3339 43.0539 49.0181C41.9402 51.7024 41.3833 54.6722 41.3833 57.9276C41.3833 61.183 41.9544 64.1529 43.0967 66.8371C44.2389 69.5214 45.8095 71.8202 47.8084 73.7334C49.8074 75.6467 52.1347 77.1459 54.7904 78.231C57.4461 79.3161 60.2874 79.8587 63.3144 79.8587C67.2551 79.8587 70.8246 78.9306 74.0229 77.0745C77.2212 75.2183 79.8198 72.7482 81.8187 69.6642L81.8187 58.4416L72.7379 58.4416L72.7379 60.4977L79.5913 60.4977L79.5913 69.0645C77.8208 71.6916 75.5221 73.7762 72.695 75.3183C69.868 76.8603 66.7411 77.6313 63.3144 77.6313C60.573 77.6313 58.0172 77.1601 55.6471 76.2178C53.2769 75.2754 51.1923 73.9333 49.3933 72.1914C47.5943 70.4495 46.1807 68.3649 45.1527 65.9376C44.1247 63.5103 43.6107 60.8404 43.6107 57.9276C43.6107 55.0149 44.1104 52.3449 45.1099 49.9177C46.1094 47.4904 47.48 45.4058 49.222 43.6639C50.9639 41.922 53.0056 40.5798 55.3472 39.6375C57.6888 38.6951 60.2303 38.224 62.9717 38.224C63.9997 38.224 64.9706 38.3096 65.8844 38.481C66.7982 38.6523 67.5978 38.8236 68.2831 38.995C69.0827 39.2234 69.8252 39.4519 70.5105 39.6803L71.8812 37.71Z" fill="#c7e671" fill-rule="nonzero" opacity="1" stroke="none"/>
<path d="M122.939 87.9115C119.341 87.9115 116.086 87.4546 113.173 86.5408C110.261 85.627 107.776 84.2563 105.72 82.4287C103.664 80.6011 102.079 78.2881 100.966 75.4896C99.8518 72.6911 99.295 69.4072 99.295 65.6378L99.295 29.3145L117.542 29.3145L117.542 64.8668C117.542 66.8657 117.956 68.3934 118.784 69.45C119.613 70.5066 120.998 71.0349 122.939 71.0349C124.881 71.0349 126.266 70.5066 127.094 69.45C127.922 68.3934 128.336 66.8657 128.336 64.8668L128.336 29.3145L146.669 29.3145L146.669 65.6378C146.669 69.4072 146.113 72.6911 144.999 75.4896C143.885 78.2881 142.286 80.6011 140.202 82.4287C138.117 84.2563 135.618 85.627 132.706 86.5408C129.793 87.4546 126.537 87.9115 122.939 87.9115ZM122.939 77.6313C114.373 77.6313 110.089 73.4336 110.089 65.0381L110.089 36.1679L107.862 36.1679L107.862 65.0381C107.862 69.8355 109.161 73.505 111.76 76.0464C114.358 78.5879 118.085 79.8587 122.939 79.8587C127.794 79.8587 131.535 78.5879 134.162 76.0464C136.789 73.505 138.103 69.8355 138.103 65.0381L138.103 36.1679L135.79 36.1679L135.79 65.0381C135.79 73.4336 131.506 77.6313 122.939 77.6313Z" fill="#c7e671" fill-rule="nonzero" opacity="1" stroke="none"/>
<path d="M52.049 109.907L41.5118 109.907L41.5118 94.9156L81.4332 94.9156L81.4332 109.907L70.896 109.907L70.896 152.056L52.049 152.056L52.049 109.907ZM62.5862 145.203L62.5862 103.825L74.8367 103.825L74.8367 101.769L48.1083 101.769L48.1083 103.825L60.3588 103.825L60.3588 145.203L62.5862 145.203Z" fill="#c7e671" fill-rule="nonzero" opacity="1" stroke="none"/>
<path d="M113.302 94.9156L132.663 94.9156L132.663 152.056L113.302 152.056L113.302 94.9156ZM124.096 145.203L124.096 101.769L121.869 101.769L121.869 145.203L124.096 145.203Z" fill="#c7e671" fill-rule="nonzero" opacity="1" stroke="none"/>
</g>
</g>
</svg>
